<svg width="27" height="30" viewBox="0 0 27 30" fill="none" xmlns="http://www.w3.org/2000/svg">
<path d="M9.10627 29.9628C9.32392 29.9628 9.46919 29.8142 9.46919 29.5909L9.46893 21.2613C9.46893 20.6292 9.94066 20.1457 10.5574 20.1457H15.5642C16.181 20.1457 16.6527 20.6291 16.6527 21.2613V29.628C16.6527 29.8511 16.7977 30 17.0156 30L22.131 29.9997C24.3442 29.9997 26.1221 28.1776 26.1221 25.9092V12.4108C26.1221 11.7043 25.8318 10.9977 25.3239 10.4771L14.5122 0.585772C13.714 -0.195257 12.4441 -0.195257 11.6461 0.585772L0.798179 10.5143C0.29026 11.0349 0 11.7044 0 12.448V25.9092C0 28.1775 1.77783 29.9997 3.99102 29.9997L9.10668 29.9995L9.10627 29.9628ZM0.725404 25.8723V12.4111C0.725404 11.8905 0.943049 11.3699 1.26951 11.0353L12.1175 1.10676C12.6254 0.586178 13.4598 0.586178 14.0041 1.10676L24.8521 10.9981C25.215 11.3701 25.4327 11.8533 25.4327 12.3739V25.8351C25.4327 27.6944 23.9816 29.1817 22.1675 29.1817L17.3781 29.1819V21.2614C17.3781 20.2202 16.5799 19.4021 15.564 19.4021H10.5572C9.54134 19.4021 8.74316 20.2202 8.74316 21.2614V29.2563H3.99044C2.1764 29.2192 0.725293 27.7316 0.725293 25.8723L0.725404 25.8723Z" fill="white"/>
</svg>
