<svg width="24" height="23" viewBox="0 0 24 23" fill="none" xmlns="http://www.w3.org/2000/svg">
<path d="M23.4983 21.8593L17.2436 15.6339C18.6911 13.975 19.5704 11.8124 19.5704 9.44759C19.5704 4.23868 15.3125 0 10.0784 0C4.84451 0.000186592 0.586853 4.23854 0.586853 9.44759C0.586853 14.6565 4.84437 18.8947 10.0784 18.8947C12.4538 18.8947 14.6265 18.0197 16.2928 16.5788L22.548 22.8043C22.6793 22.9349 22.8512 23 23.0233 23C23.195 23 23.3671 22.9347 23.498 22.8043C23.7605 22.5432 23.7605 22.1196 23.4978 21.8585L23.4983 21.8593ZM1.9312 9.44807C1.9312 4.97631 5.58633 1.33805 10.0789 1.33805C14.5717 1.33805 18.227 4.97626 18.227 9.44807C18.227 13.9199 14.5719 17.5576 10.0789 17.5576C5.58628 17.5576 1.9312 13.9198 1.9312 9.44807Z" fill="white"/>
</svg>
